<svg width="451" height="129" viewBox="0 0 451 129" fill="none" xmlns="http://www.w3.org/2000/svg">
<g opacity="0.25">
<path d="M450.5 40C450.5 42.5213 448.806 45.0875 445.319 47.659C441.846 50.2209 436.692 52.713 430.007 55.0989C416.642 59.8685 397.275 64.1724 373.309 67.7899C325.385 75.0237 259.161 79.5 186 79.5C112.839 79.5 46.6154 75.0237 -1.30867 67.7899C-25.2746 64.1724 -44.6419 59.8685 -58.0069 55.0989C-64.6925 52.713 -69.8463 50.2209 -73.3193 47.659C-76.8055 45.0875 -78.5 42.5213 -78.5 40C-78.5 37.4787 -76.8055 34.9125 -73.3193 32.341C-69.8463 29.7791 -64.6925 27.287 -58.0069 24.9011C-44.6419 20.1315 -25.2746 15.8276 -1.30867 12.2101C46.6154 4.97631 112.839 0.5 186 0.5C259.161 0.5 325.385 4.97631 373.309 12.2101C397.275 15.8276 416.642 20.1315 430.007 24.9011C436.692 27.287 441.846 29.7791 445.319 32.341C448.806 34.9125 450.5 37.4787 450.5 40Z" stroke="white"/>
<path d="M450.5 52C450.5 54.5213 448.806 57.0875 445.319 59.659C441.846 62.2209 436.692 64.713 430.007 67.0989C416.642 71.8685 397.275 76.1724 373.309 79.7899C325.385 87.0237 259.161 91.5 186 91.5C112.839 91.5 46.6154 87.0237 -1.30867 79.7899C-25.2746 76.1724 -44.6419 71.8685 -58.0069 67.0989C-64.6925 64.713 -69.8463 62.2209 -73.3193 59.659C-76.8055 57.0875 -78.5 54.5213 -78.5 52C-78.5 49.4787 -76.8055 46.9125 -73.3193 44.341C-69.8463 41.7791 -64.6925 39.287 -58.0069 36.9011C-44.6419 32.1315 -25.2746 27.8276 -1.30867 24.2101C46.6154 16.9763 112.839 12.5 186 12.5C259.161 12.5 325.385 16.9763 373.309 24.2101C397.275 27.8276 416.642 32.1315 430.007 36.9011C436.692 39.287 441.846 41.7791 445.319 44.341C448.806 46.9125 450.5 49.4787 450.5 52Z" stroke="white"/>
<path d="M450.5 65C450.5 67.5213 448.806 70.0875 445.319 72.659C441.846 75.2209 436.692 77.713 430.007 80.0989C416.642 84.8685 397.275 89.1724 373.309 92.7899C325.385 100.024 259.161 104.5 186 104.5C112.839 104.5 46.6154 100.024 -1.30867 92.7899C-25.2746 89.1724 -44.6419 84.8685 -58.0069 80.0989C-64.6925 77.713 -69.8463 75.2209 -73.3193 72.659C-76.8055 70.0875 -78.5 67.5213 -78.5 65C-78.5 62.4787 -76.8055 59.9125 -73.3193 57.341C-69.8463 54.7791 -64.6925 52.287 -58.0069 49.9011C-44.6419 45.1315 -25.2746 40.8276 -1.30867 37.2101C46.6154 29.9763 112.839 25.5 186 25.5C259.161 25.5 325.385 29.9763 373.309 37.2101C397.275 40.8276 416.642 45.1315 430.007 49.9011C436.692 52.287 441.846 54.7791 445.319 57.341C448.806 59.9125 450.5 62.4787 450.5 65Z" stroke="white"/>
<path d="M450.5 77C450.5 79.5213 448.806 82.0875 445.319 84.659C441.846 87.2209 436.692 89.713 430.007 92.0989C416.642 96.8685 397.275 101.172 373.309 104.79C325.385 112.024 259.161 116.5 186 116.5C112.839 116.5 46.6154 112.024 -1.30867 104.79C-25.2746 101.172 -44.6419 96.8685 -58.0069 92.0989C-64.6925 89.713 -69.8463 87.2209 -73.3193 84.659C-76.8055 82.0875 -78.5 79.5213 -78.5 77C-78.5 74.4787 -76.8055 71.9125 -73.3193 69.341C-69.8463 66.7791 -64.6925 64.287 -58.0069 61.9011C-44.6419 57.1315 -25.2746 52.8276 -1.30867 49.2101C46.6154 41.9763 112.839 37.5 186 37.5C259.161 37.5 325.385 41.9763 373.309 49.2101C397.275 52.8276 416.642 57.1315 430.007 61.9011C436.692 64.287 441.846 66.7791 445.319 69.341C448.806 71.9125 450.5 74.4787 450.5 77Z" stroke="white"/>
<path d="M450.5 89C450.5 91.5213 448.806 94.0875 445.319 96.659C441.846 99.2209 436.692 101.713 430.007 104.099C416.642 108.868 397.275 113.172 373.309 116.79C325.385 124.024 259.161 128.5 186 128.5C112.839 128.5 46.6154 124.024 -1.30867 116.79C-25.2746 113.172 -44.6419 108.868 -58.0069 104.099C-64.6925 101.713 -69.8463 99.2209 -73.3193 96.659C-76.8055 94.0875 -78.5 91.5213 -78.5 89C-78.5 86.4787 -76.8055 83.9125 -73.3193 81.341C-69.8463 78.7791 -64.6925 76.287 -58.0069 73.9011C-44.6419 69.1315 -25.2746 64.8276 -1.30867 61.2101C46.6154 53.9763 112.839 49.5 186 49.5C259.161 49.5 325.385 53.9763 373.309 61.2101C397.275 64.8276 416.642 69.1315 430.007 73.9011C436.692 76.287 441.846 78.7791 445.319 81.341C448.806 83.9125 450.5 86.4787 450.5 89Z" stroke="white"/>
</g>
</svg>
